<?xml version="1.0" encoding="UTF-8"?>
<svg id="Layer_1" data-name="Layer 1" xmlns="http://www.w3.org/2000/svg" viewBox="0 0 792 107.15">
  <defs>
    <style>
      .cls-1 {
        fill-rule: evenodd;
      }

      .cls-1, .cls-2 {
        fill: #0a2127;
        stroke-width: 0px;
      }
    </style>
  </defs>
  <g>
    <path class="cls-2" d="M271.91,99.55v6.19h-38.57v-6.19c5.53,0,9.03-.21,10.49-.63,1.46-.42,2.18-1.43,2.18-3.03V22.69c0-1.59-.73-2.6-2.18-3.03-1.46-.42-4.95-.63-10.49-.63v-6.19h39.84c11.54,0,20.57,2.18,27.1,6.55,6.52,4.36,9.78,10.49,9.78,18.37,0,6.1-2.14,11.19-6.41,15.27s-10.3,6.92-18.09,8.52l20.97,30.55c1.78,2.63,3.54,4.41,5.28,5.35,1.74.94,4.76,1.55,9.08,1.83l4.65.28v6.19h-26.18l-23.09-38.71c-.94-1.59-2-2.72-3.17-3.38-1.17-.66-2.7-.99-4.57-.99h-9.29v33.22c0,1.6.73,2.6,2.18,3.03,1.45.42,4.95.63,10.49.63ZM259.24,19.31v36.88h13.09c8.07,0,14.05-1.52,17.95-4.57,3.89-3.05,5.84-7.67,5.84-13.87s-1.95-10.81-5.84-13.87c-3.9-3.05-9.88-4.57-17.95-4.57h-13.09Z"/>
    <path class="cls-2" d="M379.04,88.57l5.21,3.66c-2.25,4.6-5.68,8.23-10.28,10.91-4.6,2.67-9.62,4.01-15.06,4.01-8.63,0-15.88-3.17-21.75-9.5-5.87-6.33-8.8-14.43-8.8-24.28,0-4.5.7-8.82,2.11-12.95,1.41-4.13,3.42-7.79,6.05-10.98,2.81-3.57,6.17-6.33,10.06-8.31,3.89-1.97,7.95-2.96,12.18-2.96,7.88,0,14.05,2.53,18.51,7.6,4.46,5.07,6.69,11.92,6.69,20.55v4.5h-43.64v.42c0,8.35,1.97,15.02,5.91,19.99,3.94,4.98,9.06,7.46,15.34,7.46,3.66,0,6.8-.77,9.43-2.32,2.63-1.55,5.3-4.15,8.03-7.81ZM358.2,45.07c-4.41,0-8.21,1.76-11.4,5.28-3.19,3.52-5.21,8.28-6.05,14.29h31.39c-.09-6.57-1.29-11.47-3.59-14.71-2.3-3.24-5.75-4.86-10.35-4.86Z"/>
    <path class="cls-2" d="M465.13,101.1v3.1l-19.85,2.96h-1.97v-12.53c-2.25,3.57-5.28,6.55-9.08,8.94-3.8,2.39-7.67,3.59-11.61,3.59-7.6,0-13.89-3.05-18.86-9.15-4.97-6.1-7.46-13.7-7.46-22.8,0-10.98,2.88-19.89,8.66-26.75,5.77-6.85,13.16-10.28,22.17-10.28,3,0,5.98.56,8.94,1.69,2.96,1.13,5.37,2.58,7.25,4.36v-27.73c0-1.22-.16-2.11-.49-2.67-.33-.56-1.25-1.17-2.75-1.83l-6.47-2.96v-3.1L453.45.17h1.97v93.47c0,1.22.16,2.11.49,2.67.33.56,1.24,1.17,2.75,1.83l6.47,2.96ZM428.96,44.93c-6.01,0-10.86,2.53-14.57,7.6-3.71,5.07-5.56,11.68-5.56,19.85,0,7.6,1.69,13.82,5.07,18.65,3.38,4.83,7.84,7.25,13.37,7.25,2.91,0,5.68-.7,8.31-2.11,2.63-1.41,5.21-3.57,7.74-6.48v-37.16c-1.41-2.44-3.36-4.32-5.84-5.63-2.49-1.31-5.33-1.97-8.52-1.97Z"/>
    <path class="cls-2" d="M499.64,44.93c-3.75,0-6.78.96-9.08,2.89-2.3,1.92-3.45,4.43-3.45,7.53,0,2.35.94,4.32,2.82,5.91,1.87,1.6,6.05,3.38,12.53,5.35,4.22,1.31,7.32,2.42,9.29,3.31,1.97.89,3.71,1.81,5.21,2.74,2.34,1.69,4.08,3.64,5.21,5.84,1.13,2.21,1.69,4.76,1.69,7.67,0,6.1-2.51,11.12-7.53,15.06-5.02,3.94-11.24,5.91-18.65,5.91-3.66,0-7.35-.52-11.05-1.55-3.71-1.03-7.34-2.58-10.91-4.65l-1.41-17.31h5.49c1.12,5.72,3.24,9.95,6.33,12.67,3.1,2.72,7.32,4.08,12.67,4.08,4.03,0,7.39-1.01,10.07-3.03,2.68-2.02,4.01-4.67,4.01-7.95,0-2.63-.99-4.83-2.96-6.62-1.97-1.78-6.24-3.61-12.81-5.49-4.04-1.22-6.99-2.23-8.87-3.03-1.88-.8-3.47-1.71-4.79-2.75-2.16-1.5-3.78-3.31-4.86-5.42-1.08-2.11-1.62-4.53-1.62-7.25,0-5.91,2.27-10.84,6.83-14.78,4.55-3.94,10.21-5.91,16.96-5.91,3.28,0,6.47.42,9.57,1.27,3.1.84,6.24,2.16,9.43,3.94v16.75h-4.93c-.84-5.35-2.49-9.22-4.93-11.61-2.44-2.39-5.87-3.59-10.28-3.59Z"/>
    <path class="cls-2" d="M577.62,91.67l3.66,4.5c-2.53,3.47-5.7,6.17-9.5,8.09-3.8,1.92-7.81,2.89-12.04,2.89-5.16,0-9.41-1.5-12.74-4.5-3.33-3-5-6.8-5-11.4v-44.76h-9.01v-6.9h9.01v-16.89l12.1-3.52v20.41h20.97v6.9h-20.97v41.39c0,3.57.89,6.26,2.68,8.09,1.78,1.83,4.41,2.75,7.88,2.75,2.25,0,4.43-.56,6.55-1.69,2.11-1.13,4.24-2.91,6.4-5.35Z"/>
    <path class="cls-2" d="M616.43,107.15c-8.73,0-16.03-3.24-21.89-9.71-5.87-6.48-8.8-14.73-8.8-24.78s2.93-18.3,8.8-24.77c5.86-6.48,13.16-9.71,21.89-9.71s16.02,3.24,21.89,9.71c5.86,6.47,8.8,14.73,8.8,24.77s-2.94,18.3-8.8,24.78c-5.87,6.47-13.16,9.71-21.89,9.71ZM616.43,100.11c5.63,0,9.99-2.39,13.09-7.18,3.1-4.79,4.65-11.54,4.65-20.27s-1.55-15.48-4.65-20.27c-3.1-4.79-7.46-7.18-13.09-7.18s-10,2.39-13.09,7.18c-3.1,4.79-4.65,11.54-4.65,20.27s1.55,15.48,4.65,20.27c3.1,4.79,7.46,7.18,13.09,7.18Z"/>
    <path class="cls-2" d="M686.09,99.69v6.05h-30.41v-6.05c4.13,0,6.69-.14,7.67-.42.99-.28,1.48-1.03,1.48-2.25v-42.51c0-1.22-.16-2.11-.49-2.67s-1.24-1.17-2.74-1.83l-6.48-2.96v-3.1l19.85-5.77h1.97v12.53c2.72-3.57,6.21-6.55,10.49-8.94,4.27-2.39,8.42-3.59,12.46-3.59,6,0,10.68,2.09,14.01,6.26,3.33,4.18,5,9.92,5,17.24v35.33c0,1.22.49,1.97,1.48,2.25.99.28,3.54.42,7.67.42v6.05h-30.41v-6.05c4.13,0,6.69-.14,7.67-.42.99-.28,1.48-1.03,1.48-2.25v-34.21c0-5.07-1.08-8.91-3.24-11.54-2.16-2.63-5.35-3.94-9.57-3.94-2.91,0-5.89.75-8.94,2.25-3.05,1.5-5.75,3.52-8.09,6.05v41.39c0,1.22.49,1.97,1.48,2.25.99.28,3.54.42,7.67.42Z"/>
    <path class="cls-2" d="M786.79,88.07l5.21,3.66c-2.25,4.6-5.68,8.23-10.28,10.91-4.6,2.67-9.62,4.01-15.06,4.01-8.63,0-15.88-3.17-21.75-9.5-5.87-6.33-8.8-14.43-8.8-24.28,0-4.5.7-8.82,2.11-12.95,1.41-4.13,3.42-7.79,6.05-10.98,2.81-3.57,6.17-6.33,10.06-8.31,3.89-1.97,7.95-2.96,12.18-2.96,7.88,0,14.05,2.53,18.51,7.6,4.46,5.07,6.69,11.92,6.69,20.55v4.5h-43.64v.42c0,8.35,1.97,15.02,5.91,19.99,3.94,4.98,9.06,7.46,15.34,7.46,3.66,0,6.8-.77,9.43-2.32,2.63-1.55,5.3-4.15,8.03-7.81ZM765.96,44.58c-4.41,0-8.21,1.76-11.4,5.28-3.19,3.52-5.21,8.28-6.05,14.29h31.39c-.09-6.57-1.29-11.47-3.59-14.71-2.3-3.24-5.75-4.86-10.35-4.86Z"/>
  </g>
  <g>
    <polygon class="cls-1" points="74.93 105.82 0 105.82 57.29 30.78 80.8 0 107.01 34.63 117.83 49.63 74.93 105.82"/>
    <path class="cls-2" d="M140.69,35.86l52.96,69.96h-106.38c17.81-23.32,35.61-46.64,53.42-69.96"/>
  </g>
</svg>